# xmcd CD database file
#
# Track frame offsets:
#	150
#	15830
#	38345
#	58410
#	78305
#	99627
#	114462
#	134455
#	156452
#	177255
#
# Disc length: 2577 seconds
#
# Revision: 0
# Processed by: cddbd v1.4PL0 Copyright (c) Steve Scherf et al.
# Submitted via: CDex 1.50beta9
#
DISCID=790a0f0a
DTITLE=Laurel Tree Music For Therapy - Smile
DYEAR=2000
DGENRE=New Age
TTITLE0=I'll Be Seeing You
TTITLE1=I Left My Heart In San Francisco
TTITLE2=The Days Of Wine And Roses
TTITLE3=Smile
TTITLE4=The Shadow Of Your Smile
TTITLE5=Mack The Knife
TTITLE6=I Can't Get Started
TTITLE7=Where Or When
TTITLE8=It Was A Very Good Year
TTITLE9=Hello, Dolly!
EXTD=YEAR: 2000
EXTT0=
EXTT1=
EXTT2=
EXTT3=
EXTT4=
EXTT5=
EXTT6=
EXTT7=
EXTT8=
EXTT9=
PLAYORDER=
